<svg width="24" height="24" viewBox="0 0 24 24" fill="none" xmlns="http://www.w3.org/2000/svg">
<path d="M15.36 5.27996H17.76C18.025 5.27996 18.24 5.06492 18.24 4.79996V1.5662C18.24 1.31468 18.0466 1.1054 17.796 1.08764C17.0323 1.0334 15.5405 0.959961 14.4677 0.959961C11.52 0.959961 9.60001 2.72636 9.60001 5.9366V9.11996H6.24001C5.97505 9.11996 5.76001 9.335 5.76001 9.59996V12.96C5.76001 13.2249 5.97505 13.44 6.24001 13.44H9.60001V22.56C9.60001 22.8249 9.81505 23.04 10.08 23.04H13.44C13.705 23.04 13.92 22.8249 13.92 22.56V13.44H17.3866C17.6314 13.44 17.8368 13.2561 17.8637 13.0128L18.2371 9.65276C18.2688 9.3686 18.0461 9.11996 17.76 9.11996H13.92V6.71996C13.92 5.9246 14.5647 5.27996 15.36 5.27996Z" fill="#5673FF"/>
</svg>
