<svg width="28" height="27" viewBox="0 0 28 27" fill="none" xmlns="http://www.w3.org/2000/svg">
<path d="M12.1334 2.69995C6.98978 2.69995 2.80005 6.74005 2.80005 11.7C2.80005 16.6599 6.98978 20.7 12.1334 20.7C14.3701 20.7 16.4243 19.934 18.0342 18.6626L23.6068 24.0363C23.6928 24.1227 23.7958 24.1916 23.9098 24.2391C24.0238 24.2866 24.1465 24.3117 24.2706 24.313C24.3948 24.3142 24.518 24.2915 24.633 24.2462C24.7479 24.201 24.8524 24.134 24.9402 24.0494C25.028 23.9647 25.0974 23.864 25.1443 23.7531C25.1913 23.6423 25.2148 23.5235 25.2135 23.4037C25.2123 23.284 25.1862 23.1657 25.137 23.0558C25.0877 22.9459 25.0162 22.8466 24.9266 22.7636L19.354 17.39C20.6724 15.8376 21.4667 13.8568 21.4667 11.7C21.4667 6.74005 17.277 2.69995 12.1334 2.69995ZM12.1334 4.49995C16.2682 4.49995 19.6 7.71284 19.6 11.7C19.6 15.6871 16.2682 18.9 12.1334 18.9C7.9986 18.9 4.66672 15.6871 4.66672 11.7C4.66672 7.71284 7.9986 4.49995 12.1334 4.49995Z" fill="#373737"/>
</svg>
