<svg width="21" height="21" viewBox="0 0 21 21" fill="none" xmlns="http://www.w3.org/2000/svg">
<path d="M10.5 1.75C8.09153 1.75 6.125 3.71653 6.125 6.125C6.125 8.53347 8.09153 10.5 10.5 10.5C12.9085 10.5 14.875 8.53347 14.875 6.125C14.875 3.71653 12.9085 1.75 10.5 1.75ZM5.46875 12.25C4.38922 12.25 3.5 13.1392 3.5 14.2188V14.7434C3.5 16.03 4.31581 17.1841 5.56018 17.9777C6.80455 18.7712 8.50712 19.25 10.5 19.25C12.4929 19.25 14.1955 18.7712 15.4398 17.9777C16.6842 17.1841 17.5 16.03 17.5 14.7434V14.2188C17.5 13.1392 16.6108 12.25 15.5312 12.25H5.46875Z" fill="#858585"/>
</svg>
