<svg width="25" height="25" viewBox="0 0 25 25" fill="none" xmlns="http://www.w3.org/2000/svg">
<path d="M19.0176 6.99411C18.8145 6.9902 18.6289 7.1113 18.5469 7.29684C18.4668 7.48434 18.5078 7.70114 18.6504 7.84567L22.6387 12L4.84766 12.1562C4.66797 12.1543 4.5 12.248 4.41016 12.4043C4.31836 12.5605 4.31836 12.7519 4.41016 12.9082C4.5 13.0644 4.66797 13.1582 4.84766 13.1562L22.6387 13L18.6504 17.1543C18.459 17.3535 18.4668 17.6699 18.666 17.8613C18.8652 18.0527 19.1816 18.0468 19.373 17.8457L24.5059 12.5L19.373 7.15427C19.2812 7.05466 19.1523 6.99802 19.0176 6.99411Z" fill="white"/>
</svg>
