<svg width="17" height="17" viewBox="0 0 17 17" fill="none" xmlns="http://www.w3.org/2000/svg">
<path d="M6.43875 4.36694C3.03344 5.28601 0.548516 8.13351 0.425 8.27694C0.316094 8.40444 0.316094 8.59569 0.425 8.72319C0.572422 8.89452 4.07602 12.9201 8.5 12.9201C12.924 12.9201 16.4276 8.89452 16.575 8.72319C16.6839 8.59569 16.6839 8.40444 16.575 8.27694C16.4515 8.13351 13.9666 5.28733 10.5612 4.36694C11.5693 5.03632 12.24 6.17851 12.24 7.48007C12.2387 9.5453 10.5652 11.2201 8.5 11.2201C6.43477 11.2201 4.76133 9.5453 4.76 7.48007C4.76 6.17851 5.4307 5.03632 6.43875 4.36694ZM8.5 5.78007C7.56102 5.78007 6.8 6.54108 6.8 7.48007C6.8 8.41905 7.56102 9.18007 8.5 9.18007C9.43898 9.18007 10.2 8.41905 10.2 7.48007C10.2 6.54108 9.43898 5.78007 8.5 5.78007Z" fill="#858585"/>
</svg>
