<svg width="68" height="28" viewBox="0 0 68 28" fill="none" xmlns="http://www.w3.org/2000/svg">
<path d="M1.12216 27V23.0114L10.4418 14.3821C11.2344 13.6151 11.8991 12.9247 12.4361 12.3111C12.9815 11.6974 13.3949 11.0966 13.6761 10.5085C13.9574 9.91193 14.098 9.26847 14.098 8.57812C14.098 7.81108 13.9233 7.15057 13.5739 6.59659C13.2244 6.03409 12.7472 5.60369 12.142 5.3054C11.5369 4.99858 10.8509 4.84517 10.0838 4.84517C9.28267 4.84517 8.58381 5.0071 7.98722 5.33097C7.39063 5.65483 6.9304 6.11932 6.60653 6.72443C6.28267 7.32954 6.12074 8.04971 6.12074 8.88494H0.866477C0.866477 7.17187 1.25426 5.68466 2.02983 4.4233C2.8054 3.16193 3.89205 2.18608 5.28977 1.49574C6.6875 0.805397 8.2983 0.460226 10.1222 0.460226C11.9972 0.460226 13.6293 0.792613 15.0185 1.45739C16.4162 2.11364 17.5028 3.02557 18.2784 4.19318C19.054 5.36079 19.4418 6.69886 19.4418 8.20739C19.4418 9.19602 19.2457 10.1719 18.8537 11.1349C18.4702 12.098 17.7841 13.1676 16.7955 14.3438C15.8068 15.5114 14.4134 16.9134 12.6151 18.5497L8.79261 22.2955V22.4744H19.7869V27H1.12216ZM34.0636 27.5753C31.8647 27.5668 29.9727 27.0256 28.3874 25.9517C26.8107 24.8778 25.5962 23.3224 24.744 21.2855C23.9002 19.2486 23.4826 16.7983 23.4911 13.9347C23.4911 11.0795 23.913 8.64631 24.7567 6.63494C25.609 4.62358 26.8235 3.09375 28.4002 2.04545C29.9854 0.988636 31.8732 0.460226 34.0636 0.460226C36.2539 0.460226 38.1374 0.988636 39.7141 2.04545C41.2994 3.10227 42.5181 4.63636 43.3704 6.64773C44.2227 8.65057 44.6445 11.0795 44.636 13.9347C44.636 16.8068 44.2099 19.2614 43.3576 21.2983C42.5139 23.3352 41.3036 24.8906 39.7269 25.9645C38.1502 27.0384 36.2624 27.5753 34.0636 27.5753ZM34.0636 22.9858C35.5636 22.9858 36.761 22.2315 37.6559 20.723C38.5508 19.2145 38.994 16.9517 38.9854 13.9347C38.9854 11.9489 38.7809 10.2955 38.3718 8.97443C37.9712 7.65341 37.4002 6.66051 36.6587 5.99574C35.9258 5.33097 35.0607 4.99858 34.0636 4.99858C32.5721 4.99858 31.3789 5.74432 30.484 7.2358C29.5891 8.72727 29.1374 10.9602 29.1289 13.9347C29.1289 15.946 29.3292 17.625 29.7298 18.9716C30.1388 20.3097 30.7141 21.3153 31.4556 21.9886C32.1971 22.6534 33.0664 22.9858 34.0636 22.9858Z" fill="white"/>
<path d="M56.407 25.581V7.47869H60.9837V25.581H56.407ZM49.6442 18.8182V14.2415H67.7465V18.8182H49.6442Z" fill="#FEAC2B"/>
</svg>
