<svg width="26" height="25" viewBox="0 0 26 25" fill="none" xmlns="http://www.w3.org/2000/svg">
<path d="M3.73052 0.892822C2.0363 0.892822 0.928589 2.05032 0.928589 3.57169C0.928589 5.05946 2.0033 6.24997 3.66551 6.24997H3.69766C5.42502 6.24997 6.50002 5.05946 6.50002 3.57169C6.46772 2.05032 5.42502 0.892822 3.73052 0.892822Z" fill="white"/>
<path d="M0.928589 8.03564H5.57145V21.4285H0.928589V8.03564Z" fill="white"/>
<path d="M17.0325 7.14282C14.5709 7.14282 12.9203 9.49467 12.9203 9.49467V7.47042H8.35712V21.4285H12.92V13.6338C12.92 13.2165 12.9498 12.7999 13.0703 12.5015C13.4002 11.6682 14.1509 10.8049 15.4115 10.8049C17.0627 10.8049 17.723 12.085 17.723 13.9614V21.4285H22.2857V13.4252C22.2857 9.13788 20.0344 7.14282 17.0325 7.14282Z" fill="white"/>
</svg>
