<svg width="66" height="66" viewBox="0 0 66 66" fill="none" xmlns="http://www.w3.org/2000/svg">
<path fill-rule="evenodd" clip-rule="evenodd" d="M33.0013 20.2871C39.3123 20.2871 45.0265 22.8453 49.1621 26.9821C53.2977 31.1177 55.8571 36.832 55.8571 43.1442C55.8571 49.4565 53.299 55.1694 49.1621 59.305C45.0252 63.4406 39.3123 65.9987 33.0013 65.9987C26.6904 65.9987 20.9761 63.4406 16.8393 59.305C12.7037 55.1694 10.1455 49.4552 10.1455 43.1442C10.1455 36.8333 12.7037 31.119 16.8393 26.9821C20.9761 22.8453 26.6904 20.2871 33.0013 20.2871ZM11.2293 7.77483C11.1421 7.49895 10.9283 7.26794 10.6313 7.1729C10.1469 7.01715 9.6281 7.28378 9.47234 7.76822L7.8131 12.9109L2.47502 12.9004C2.16746 12.8779 1.85462 13.0113 1.66058 13.2792C1.36094 13.6924 1.45334 14.2692 1.8665 14.5675L6.24494 17.7355L4.56458 22.873L4.56722 22.8743C4.4801 23.1449 4.51838 23.4525 4.6979 23.7006C4.99754 24.1111 5.57174 24.2022 5.98226 23.9026L10.3501 20.7161L14.6613 23.8603C14.8975 24.061 15.2289 24.1375 15.5443 24.0346C16.0288 23.8775 16.2941 23.3561 16.1357 22.873L14.4553 17.7355L18.8338 14.5675L18.8325 14.5662C19.0635 14.3986 19.2126 14.128 19.2126 13.8204C19.2126 13.3122 18.8008 12.9004 18.2926 12.9004L12.8872 12.9109L11.2293 7.77483ZM11.3388 14.1135L10.3488 11.0484L9.35882 14.1135C9.24002 14.4844 8.89286 14.7523 8.48234 14.7523L5.2589 14.7457L7.86986 16.6347C8.18534 16.863 8.33186 17.2762 8.20514 17.6669L7.20326 20.7319L9.7931 18.843C10.1086 18.6041 10.5547 18.5869 10.8913 18.8325L13.4957 20.7319L12.5044 17.7012C12.3645 17.3224 12.4859 16.8828 12.8291 16.6347L15.4401 14.7457L12.2602 14.7523C11.8536 14.7721 11.4695 14.5187 11.3388 14.1135ZM56.5317 7.77483C56.4445 7.49895 56.2307 7.26794 55.9337 7.1729C55.4493 7.01715 54.9305 7.28378 54.7747 7.76822L53.1155 12.9109L47.7774 12.9004C47.4699 12.8779 47.157 13.0113 46.963 13.2792C46.6633 13.6924 46.7557 14.2692 47.1689 14.5675L51.5473 17.7355L49.867 22.873L49.8696 22.8743C49.7825 23.1449 49.8208 23.4525 50.0003 23.7006C50.2999 24.1111 50.8741 24.2022 51.2847 23.9026L55.6525 20.7161L59.9637 23.8603C60.1999 24.061 60.5313 24.1375 60.8467 24.0346C61.3312 23.8775 61.5965 23.3561 61.4381 22.873L59.7577 17.7355L64.1362 14.5675L64.1349 14.5662C64.3659 14.3986 64.515 14.128 64.515 13.8204C64.515 13.3122 64.1032 12.9004 63.595 12.9004L58.1896 12.9109L56.5317 7.77483ZM56.6425 14.1135L55.6525 11.0484L54.6625 14.1135C54.5437 14.4844 54.1966 14.7523 53.7861 14.7523L50.5626 14.7457L53.1736 16.6347C53.4891 16.863 53.6356 17.2762 53.5089 17.6669L52.507 20.7319L55.0968 18.843C55.4123 18.6041 55.8585 18.5869 56.1951 18.8325L58.7994 20.7319L57.8081 17.7012C57.6682 17.3224 57.7896 16.8828 58.1328 16.6347L60.7438 14.7457L57.5639 14.7523C57.156 14.7721 56.7719 14.5187 56.6425 14.1135ZM33.8805 0.648144L35.5384 5.78427L40.9438 5.77371C41.452 5.77371 41.8638 6.18554 41.8638 6.69374C41.8638 6.99998 41.7133 7.2719 41.4837 7.43955L41.485 7.44087L37.1065 10.6089L38.7869 15.7463C38.944 16.2307 38.68 16.7508 38.1955 16.9079C37.8801 17.0109 37.5487 16.933 37.3125 16.7337L33.0013 13.5894L28.6335 16.7759C28.2229 17.0755 27.6474 16.9845 27.3491 16.5739C27.1683 16.3258 27.13 16.0182 27.2184 15.7476L27.2158 15.7463L28.8961 10.6089L24.5177 7.44087C24.1045 7.14122 24.0135 6.56438 24.3118 6.15254C24.5058 5.88458 24.8187 5.75127 25.1262 5.77371L30.4643 5.78427L32.1249 0.641544C32.2806 0.157104 32.7994 -0.109536 33.2838 0.0462242C33.5795 0.141264 33.7933 0.372264 33.8805 0.648144ZM33.9913 6.98678L33.0013 3.92174L32.0113 6.98678C31.8925 7.35771 31.5454 7.62567 31.1349 7.62567L27.9127 7.61907L30.5237 9.50798C30.8392 9.73634 30.9857 10.1495 30.859 10.5402L29.8571 13.6053L32.4469 11.7163C32.7624 11.4774 33.2086 11.4603 33.5452 11.7058L36.1495 13.6053L35.1582 10.5745C35.0183 10.1957 35.1397 9.75614 35.4829 9.50798L38.0939 7.61907L34.914 7.62567C34.5048 7.64415 34.1207 7.39202 33.9913 6.98678ZM27.9431 39.373L27.9616 51.3388H39.9802C40.3815 51.3388 40.7484 51.2042 41.0309 50.9732C41.3147 50.7408 41.5206 50.4108 41.6011 50.0201L43.3871 41.3226C43.4399 41.0665 43.4373 40.821 43.3805 40.5927C43.3237 40.3643 43.2129 40.1452 43.0465 39.9419C42.8829 39.7399 42.6915 39.5882 42.4803 39.4878C42.2704 39.3875 42.0301 39.3374 41.7648 39.3374H35.4526C34.9417 39.3374 34.5286 38.9242 34.5286 38.4134C34.5286 38.28 34.5563 38.1546 34.6078 38.0398L34.8084 37.4695C35.809 34.621 36.3396 33.1096 34.9483 31.8173C34.8084 31.6866 34.6553 31.5995 34.4969 31.5559C34.3385 31.5124 34.1603 31.5097 33.9715 31.5507C33.7828 31.5916 33.6217 31.6668 33.4963 31.7711C33.3696 31.8767 33.2667 32.0193 33.1941 32.1961L30.7138 38.1335C30.2148 39.3268 29.0149 39.4113 27.9431 39.373ZM26.1215 52.1361L26.1004 38.4991C25.9195 37.5276 24.2827 37.3032 24.2827 39.0153V51.7519C24.2827 53.2977 25.7083 53.5445 26.1215 52.1361ZM39.9802 53.1868C40.8144 53.1868 41.5853 52.8977 42.1938 52.4027C42.7997 51.9077 43.2379 51.2094 43.4069 50.3897L45.1929 41.6922C45.3011 41.1642 45.2932 40.6468 45.1717 40.1531C45.0503 39.6608 44.818 39.1987 44.4774 38.7803C44.1355 38.3605 43.729 38.0398 43.2683 37.8207C42.8076 37.6015 42.3021 37.4893 41.7661 37.4893H36.7541C37.8748 34.2712 38.3526 32.4615 36.205 30.4669C35.8473 30.1343 35.4315 29.9033 34.9813 29.7792C34.5312 29.6551 34.0573 29.6419 33.5821 29.7449C33.1056 29.8479 32.6806 30.0564 32.3202 30.3561C31.9612 30.6544 31.6787 31.0372 31.4899 31.4886L29.0097 37.426C28.9489 37.5725 28.285 37.5474 27.7147 37.5184C26.5584 34.9259 22.4334 35.4816 22.4334 39.0166V51.7533C22.4334 55.1708 26.3578 56.0644 27.6897 53.1868H39.9802ZM33.0013 24.1441C27.7557 24.1441 23.005 26.2707 19.5677 29.7093C16.1291 33.1479 14.0026 37.8972 14.0026 43.1429C14.0026 48.3886 16.1291 53.1393 19.5677 56.5765C23.0063 60.0152 27.7557 62.1417 33.0013 62.1417C38.247 62.1417 42.9977 60.0152 46.435 56.5765C49.8736 53.138 52.0001 48.3886 52.0001 43.1429C52.0001 37.8972 49.8736 33.1465 46.435 29.7093C42.9977 26.2707 38.247 24.1441 33.0013 24.1441ZM45.1282 31.0161C42.0249 27.9127 37.7375 25.9921 33.0013 25.9921C28.2652 25.9921 23.9778 27.9114 20.8732 31.0161C17.7699 34.1194 15.8493 38.4067 15.8493 43.1429C15.8493 47.8791 17.7685 52.1664 20.8732 55.2711C23.9765 58.3744 28.2652 60.295 33.0013 60.295C37.7375 60.295 42.0249 58.3757 45.1282 55.2711C48.2315 52.1678 50.1521 47.8791 50.1521 43.1429C50.1521 38.4067 48.2328 34.1194 45.1282 31.0161ZM47.8566 28.2876C44.055 24.486 38.8027 22.1351 33.0013 22.1351C27.1999 22.1351 21.9477 24.486 18.1461 28.2876C14.3445 32.0892 11.9935 37.3415 11.9935 43.1429C11.9935 48.9443 14.3445 54.1966 18.1461 57.9982C21.9477 61.7998 27.1999 64.1507 33.0013 64.1507C38.8027 64.1507 44.055 61.7998 47.8566 57.9982C51.6582 54.1966 54.0091 48.9443 54.0091 43.1429C54.0091 37.3415 51.6582 32.0892 47.8566 28.2876Z" fill="#FEAC2B"/>
</svg>
