<svg width="24" height="22" viewBox="0 0 24 22" fill="none" xmlns="http://www.w3.org/2000/svg">
<path d="M22.515 5.51685C21.1453 5.51685 19.8815 5.10091 18.8667 4.39923C17.7028 3.59485 16.8665 2.41493 16.5712 1.05497C16.4981 0.718955 16.4587 0.372197 16.455 0.0168457H12.5423V9.81716L12.5376 15.1852C12.5376 16.6204 11.5181 17.8373 10.1048 18.2652C9.69465 18.3894 9.25168 18.4483 8.79043 18.4251C8.20168 18.3954 7.64996 18.2326 7.17043 17.9696C6.14996 17.4102 5.45809 16.3952 5.43934 15.2342C5.40981 13.4197 7.01012 11.9402 8.98824 11.9402C9.37871 11.9402 9.75371 11.9987 10.1048 12.1048V9.42614V8.46321C9.73449 8.41294 9.35762 8.38673 8.97652 8.38673C6.81137 8.38673 4.78637 9.21173 3.33887 10.698C2.2448 11.8212 1.58855 13.2542 1.4873 14.7568C1.35465 16.7308 2.14262 18.6073 3.67074 19.9917C3.89527 20.195 4.13105 20.3836 4.37762 20.5576C5.68777 21.4819 7.28949 21.9829 8.97652 21.9829C9.35762 21.9829 9.73449 21.9571 10.1048 21.9068C11.6807 21.6929 13.1348 21.0316 14.2823 19.9917C15.6923 18.7143 16.4714 17.0183 16.4798 15.2132L16.4597 7.19692C17.1323 7.67259 17.8678 8.06618 18.6572 8.37169C19.8848 8.84649 21.1865 9.08712 22.5262 9.08669V6.48235V5.51599C22.5272 5.51685 22.5159 5.51685 22.515 5.51685Z" fill="white"/>
</svg>
